<svg width="106" height="106" viewBox="0 0 106 106" fill="none" xmlns="http://www.w3.org/2000/svg">
<g clip-path="url(#clip0_1_469)">
<path d="M53.0017 0C23.7301 0 0.000976562 23.7291 0.000976562 53.0007C0.000976562 79.6402 19.6548 101.689 45.2534 105.439L105.402 44.9962C101.543 19.5227 79.552 0 53.0017 0Z" fill="#FF6161"/>
<path d="M90.479 90.4777C102.87 78.0864 107.84 61.0863 105.395 44.9955L83.2553 22.856L22.9658 83.1454L45.2545 105.434C61.269 107.787 78.1538 102.803 90.479 90.4777Z" fill="#FF0F27"/>
<path d="M53.0784 95.5549L48.5908 50.6802L95.7094 52.924C95.7094 76.4314 76.586 95.5549 53.0784 95.5549Z" fill="#121149"/>
<path d="M53.0784 10.293C76.586 10.293 95.7094 29.4163 95.7094 52.924H48.5908L53.0784 10.293Z" fill="#940030"/>
<path d="M53.0783 52.9239V95.5549C29.5706 95.5549 10.4473 76.4316 10.4473 52.9239L31.7628 46.1926L53.0783 52.9239Z" fill="#940030"/>
<path d="M53.0783 10.293V52.924H10.4473C10.4473 29.4163 29.5706 10.293 53.0783 10.293Z" fill="#C2001B"/>
<path d="M53.0782 88.6417L49.3184 51.0439L88.796 52.9239C88.796 72.6194 72.7737 88.6417 53.0782 88.6417Z" fill="#940030"/>
<path d="M53.0782 17.2061C72.7737 17.2061 88.796 33.2284 88.796 52.9239H49.3184L53.0782 17.2061Z" fill="#C2001B"/>
<path d="M53.0782 52.9239V88.6418C33.3827 88.6418 17.3604 72.6194 17.3604 52.9239L35.2193 47.2842L53.0782 52.9239Z" fill="#C2001B"/>
<path d="M53.0782 17.2061V52.9239H17.3604C17.3604 33.2282 33.3825 17.2061 53.0782 17.2061Z" fill="#FF0F27"/>
<path d="M53.0782 26.115C59.5074 26.115 67.0243 33.6319 67.0243 40.0611C67.0243 49.9031 55.2743 53.6754 55.2743 59.4639C55.2743 61.8006 52.9699 68.2114 52.9699 68.2114H48.3612V59.4639C48.3612 54.9912 51.6195 51.8549 54.4931 49.085C57.8851 45.8151 60.1112 43.4209 60.1112 40.0611C60.1112 36.1828 56.9565 33.0281 53.0782 33.0281C49.1999 33.0281 46.0453 36.1828 46.0453 40.0611H41.4365C39.2047 31.6084 46.649 26.115 53.0782 26.115Z" fill="#FFEDB5"/>
<path d="M69.3291 40.061C69.3291 47.5894 64.4507 52.2904 60.8881 55.7239C59.7152 56.853 57.7565 58.7403 57.579 59.4938V68.2113H52.9703C52.9703 68.2113 52.9703 61.8005 52.9703 59.4639C52.9703 53.6753 64.7203 49.903 64.7203 40.061C64.7203 33.6318 59.5078 28.4193 53.0786 28.4193C46.6494 28.4193 41.4369 33.6318 41.4369 40.061H36.8281C36.8281 31.1016 44.1192 23.8105 53.0786 23.8105C62.038 23.8105 69.3291 31.1016 69.3291 40.061Z" fill="white"/>
<path d="M52.9711 82.0371C55.5164 82.0371 57.5798 79.9737 57.5798 77.4283C57.5798 74.883 55.5164 72.8196 52.9711 72.8196C50.4257 72.8196 48.3623 74.883 48.3623 77.4283C48.3623 79.9737 50.4257 82.0371 52.9711 82.0371Z" fill="white"/>
</g>
<defs>
<clipPath id="clip0_1_469">
<rect width="106" height="106" fill="white"/>
</clipPath>
</defs>
</svg>
