<svg width="188" height="188" viewBox="0 0 188 188" fill="none" xmlns="http://www.w3.org/2000/svg">
<g clip-path="url(#clip0_64_435)">
<path d="M93.0798 187.08C144.486 187.08 186.16 145.406 186.16 93.9999C186.16 42.5934 144.486 0.920166 93.0798 0.920166C41.6732 0.920166 0 42.5934 0 93.9999C0 145.406 41.6732 187.08 93.0798 187.08Z" fill="#FFAF1F"/>
<path d="M181.589 65.1863C178.953 57.0829 175.245 49.4689 170.619 42.512L89.1423 127.375L89.3063 136.818L93.1524 136.794L181.589 65.1863Z" fill="#FF9901"/>
<path d="M186.301 37.5602L169.703 21.1615C167.437 18.9221 163.763 18.9221 161.497 21.1615L90.5463 94.244L59.9493 64.0116C57.6801 61.7722 54.0089 61.7722 51.7415 64.0116L37.0295 78.5488C34.7639 80.7863 34.7639 84.4164 37.0295 86.654L86.1363 135.169C87.4449 136.463 89.2192 136.984 90.9245 136.783C92.6297 136.982 94.4037 136.463 95.7126 135.169L186.301 45.6672C188.567 43.4279 188.567 39.7996 186.301 37.5602Z" fill="#F8F8F8"/>
<path d="M95.7122 135.169L186.301 45.6676C188.566 43.4282 188.566 39.7999 186.301 37.5602L183.592 34.8831L90.4066 126.539L39.0862 76.5141L37.0312 78.5469C34.7656 80.7845 34.7656 84.4146 37.0312 86.6521L86.1358 135.169C87.4444 136.463 89.2188 136.984 90.924 136.783C92.6292 136.984 94.4032 136.465 95.7122 135.169Z" fill="#EBEBEB"/>
</g>
<defs>
<clipPath id="clip0_64_435">
<rect width="188" height="188" fill="white"/>
</clipPath>
</defs>
</svg>
