<svg width="187" height="187" viewBox="0 0 187 187" fill="none" xmlns="http://www.w3.org/2000/svg">
<g clip-path="url(#clip0_64_464)">
<ellipse cx="91" cy="91" rx="57" ry="58" fill="#D9D9D9"/>
<path d="M159.646 27.3546C123.175 -9.11641 63.8293 -9.12001 27.3546 27.3546C-9.12001 63.8293 -9.11641 123.172 27.3546 159.646C63.8257 196.121 123.172 196.121 159.646 159.646C196.117 123.172 196.117 63.8257 159.646 27.3546ZM130.389 130.389C127.579 133.199 123.024 133.199 120.214 130.389L93.5005 103.675L65.5166 131.659C62.7068 134.469 58.1519 134.469 55.342 131.659C52.5321 128.849 52.5321 124.294 55.342 121.484L83.3258 93.5004L56.6121 66.7867C53.8022 63.9768 53.8022 59.4183 56.6121 56.6121C59.422 53.8022 63.9768 53.8022 66.7867 56.6121L93.5005 83.3258L118.941 57.8857C121.75 55.0758 126.305 55.0758 129.115 57.8857C131.925 60.6956 131.925 65.2504 129.115 68.0603L103.675 93.5004L130.389 120.214C133.199 123.024 133.199 127.579 130.389 130.389Z" fill="#FF0000"/>
</g>
<defs>
<clipPath id="clip0_64_464">
<rect width="187" height="187" fill="white"/>
</clipPath>
</defs>
</svg>
