<svg width="19" height="21" viewBox="0 0 19 21" fill="none" xmlns="http://www.w3.org/2000/svg">
<path d="M2.41676 10.1683C2.41676 9.9746 2.42486 9.78214 2.4402 9.59094H1.63417C0.982961 9.59094 0.455078 10.1189 0.455078 10.77V13.0614C0.455078 13.7126 0.982961 14.2405 1.63417 14.2405H2.41676V10.1683Z" fill="black"/>
<path d="M17.3661 9.59094H16.5601C16.5754 9.78214 16.5835 9.9746 16.5835 10.1683V14.2404H17.3661C18.0173 14.2404 18.5452 13.7125 18.5452 13.0614V10.77C18.5452 10.1189 18.0173 9.59094 17.3661 9.59094Z" fill="black"/>
<path d="M15.6809 17.0223V14.2334V10.1683C15.6809 9.97708 15.6718 9.78804 15.6547 9.60127C15.3913 6.70529 13.1305 4.38664 10.2611 4.03441V3.57968V3.12551V2.88002C10.7267 2.61502 11.041 2.11462 11.041 1.54055C11.0409 0.689741 10.3512 0 9.50035 0C8.64954 0 7.9598 0.689741 7.9598 1.54059C7.9598 2.11469 8.27405 2.61502 8.73965 2.88006V3.12554V3.57972V4.03444C5.86948 4.38678 3.60823 6.70663 3.34577 9.60367C3.32892 9.78965 3.31982 9.9779 3.31982 10.1683V14.231V17.0222H6.73312V15.7091C6.73312 15.3351 7.03628 15.0319 7.41027 15.0319H11.5904C11.9644 15.0319 12.2675 15.3351 12.2675 15.7091V17.0222L15.6809 17.0223ZM6.52007 13.2813C5.59129 13.2813 4.83841 12.5284 4.83841 11.5996C4.83841 10.6709 5.59133 9.91799 6.52007 9.91799C7.4488 9.91799 8.20172 10.6709 8.20172 11.5996C8.20172 12.5284 7.44884 13.2813 6.52007 13.2813ZM11.0409 11.5997C11.0409 10.6709 11.7939 9.91802 12.7226 9.91802C13.6513 9.91802 14.4043 10.6709 14.4043 11.5997C14.4043 12.5284 13.6514 13.2814 12.7226 13.2814C11.7938 13.2814 11.0409 12.5284 11.0409 11.5997Z" fill="black"/>
<path d="M16.6702 17.9244H16.5836H12.2675H6.73307H2.41687H2.3303C2.01523 17.9244 1.75977 18.1799 1.75977 18.495V20.4294C1.75977 20.7446 2.0152 21 2.3303 21H16.6702C16.9852 21 17.2407 20.7446 17.2407 20.4294V18.495C17.2407 18.1799 16.9853 17.9244 16.6702 17.9244Z" fill="black"/>
</svg>
