<svg width="75" height="90" viewBox="0 0 75 90" fill="none" xmlns="http://www.w3.org/2000/svg">
<path d="M74.8223 36.8738C74.8213 36.814 74.8176 36.7542 74.8107 36.6949C74.8084 36.6756 74.8063 36.6565 74.8039 36.6372C74.7929 36.565 74.7795 36.4934 74.7609 36.4232C74.7599 36.4198 74.7587 36.4167 74.7576 36.4132C74.739 36.3467 74.7163 36.2809 74.6907 36.2168C74.6834 36.1982 74.6751 36.1803 74.6672 36.1617C74.6445 36.1092 74.6187 36.0577 74.5909 36.0073C74.5833 35.9932 74.5756 35.9788 74.5678 35.9647C74.4936 35.8383 74.4037 35.7206 74.2995 35.6137C74.2869 35.6003 74.2735 35.588 74.2604 35.5749C74.2194 35.5355 74.1765 35.4977 74.1316 35.4616C74.116 35.4494 74.1008 35.4362 74.0848 35.4244C74.0263 35.3802 73.9652 35.3385 73.9006 35.3009C73.8995 35.3006 73.8992 35.2999 73.8979 35.2994C73.8979 35.2994 73.8979 35.299 73.8976 35.299L71.113 33.692C71.0883 30.8469 70.7067 28.086 70.0098 25.4516C70.0021 25.4154 69.996 25.3791 69.9863 25.3429C69.9754 25.3019 69.9613 25.2631 69.9479 25.2237C66.0896 11.0545 53.1111 0.604492 37.7359 0.604492C19.4279 0.604492 4.51755 15.4204 4.36005 33.6918L1.57478 35.2992C1.50854 35.3376 1.447 35.3804 1.38702 35.4249C1.3719 35.4365 1.35729 35.4489 1.34252 35.4607C1.29645 35.4972 1.25281 35.5356 1.21143 35.5761C1.19874 35.5883 1.1857 35.6005 1.17336 35.613C1.06887 35.7203 0.978821 35.8383 0.904586 35.9651C0.896589 35.9788 0.889461 35.9929 0.881464 36.0071C0.853648 36.0574 0.828266 36.1093 0.80497 36.1622C0.796972 36.1805 0.788976 36.1984 0.7815 36.2166C0.75577 36.2811 0.732995 36.3463 0.714567 36.4131C0.713524 36.4167 0.712307 36.4198 0.711438 36.4233C0.692488 36.4936 0.679102 36.5654 0.668149 36.6373C0.665541 36.6566 0.663455 36.6758 0.661369 36.6951C0.654588 36.7543 0.650764 36.8143 0.64972 36.8739C0.649373 36.8849 0.647461 36.895 0.647461 36.9058V67.4197C0.647461 68.0821 1.0009 68.6942 1.57461 69.0256L36.8086 89.3677C36.8133 89.3706 36.8185 89.3724 36.823 89.375C36.8888 89.4122 36.9564 89.4461 37.0266 89.4753C37.0313 89.4772 37.0365 89.4786 37.041 89.4803C37.1045 89.5061 37.1692 89.5274 37.2356 89.5462C37.2542 89.5513 37.2728 89.5556 37.2914 89.5603C37.3462 89.5737 37.4016 89.5846 37.4579 89.5933C37.4772 89.5963 37.496 89.5994 37.5153 89.602C37.5878 89.6107 37.6612 89.6161 37.7358 89.6161C37.8103 89.6161 37.8835 89.6107 37.956 89.602C37.9753 89.5994 37.9944 89.5963 38.0137 89.5933C38.0702 89.5846 38.1257 89.5739 38.1803 89.5603C38.1989 89.5556 38.2171 89.5513 38.2358 89.5462C38.302 89.5273 38.3672 89.5059 38.4303 89.4803C38.435 89.4784 38.4402 89.477 38.4447 89.4753C38.515 89.4459 38.5828 89.4122 38.6483 89.375C38.6533 89.3724 38.6586 89.3706 38.6631 89.3677L73.8971 69.0256C74.4708 68.6942 74.8242 68.0821 74.8242 67.4197V36.9056C74.8246 36.8946 74.8227 36.8846 74.8223 36.8738ZM35.8816 84.5496L4.3564 66.3488V40.1175L5.73086 40.9113C5.73155 40.9116 5.73242 40.912 5.73312 40.9123L35.8816 58.3188V84.5496ZM37.7358 55.1072L8.35618 38.1443C8.24857 37.3797 8.17416 36.6097 8.12583 35.8388H17.5305C18.5543 35.8388 19.3849 35.0085 19.3849 33.9844C19.3849 32.9606 18.5543 32.1299 17.5305 32.1299H8.12461C9.08479 16.6301 21.9981 4.31325 37.7359 4.31325C50.7918 4.31325 61.905 12.7897 65.862 24.5283L59.6185 26.2011C58.629 26.4662 58.0419 27.4829 58.307 28.4721C58.529 29.3008 59.2783 29.8472 60.0973 29.8472C60.2559 29.8472 60.4176 29.8267 60.5784 29.7834L66.8222 28.1101C67.205 30.0094 67.4071 31.9733 67.4071 33.9835C67.4071 35.3686 67.309 36.7644 67.1155 38.1441L44.3 51.3173L42.8518 45.9125C47.4726 43.9229 50.7169 39.3256 50.7169 33.9837C50.7169 29.854 48.7762 26.1715 45.7612 23.7924L52.0858 12.8368C52.5979 11.9498 52.294 10.8158 51.407 10.3036C50.5197 9.79146 49.3857 10.0957 48.8739 10.9823L42.5521 21.9329C41.0617 21.3348 39.4372 21.0022 37.7356 21.0022C34.8239 21.0022 32.1332 21.9661 29.9655 23.5912L25.2522 18.878C24.5283 18.1544 23.3545 18.154 22.6295 18.878C21.9056 19.6022 21.9056 20.7766 22.6295 21.5007L27.3428 26.2139C25.7183 28.382 24.7545 31.0724 24.7545 33.9837C24.7545 41.1418 30.5778 46.9649 37.7354 46.9649C38.2545 46.9649 38.7655 46.9309 39.2686 46.8714L40.9741 53.237L37.7358 55.1072ZM37.7359 43.2562C32.6233 43.2562 28.4638 39.0966 28.4638 33.9837C28.4638 28.8711 32.6233 24.7112 37.7359 24.7112C42.8485 24.7112 47.0081 28.8711 47.0081 33.9837C47.0081 39.0968 42.8487 43.2562 37.7359 43.2562ZM39.5904 84.5496V58.3191L69.7389 40.9127C69.74 40.9123 69.7408 40.9111 69.7419 40.9108L71.1156 40.1177V66.3488L39.5904 84.5496Z" fill="url(#paint0_linear_1_285)"/>
<path d="M37.7371 28.4207C34.6696 28.4207 32.1738 30.9161 32.1738 33.9835C32.1738 37.051 34.6696 39.5468 37.7371 39.5468C40.8045 39.5468 43.3003 37.051 43.3003 33.9835C43.3005 30.9163 40.8045 28.4207 37.7371 28.4207ZM37.7371 35.838C36.7145 35.838 35.8826 35.0061 35.8826 33.9835C35.8826 32.9609 36.7145 32.1294 37.7371 32.1294C38.7596 32.1294 39.5915 32.9609 39.5915 33.9835C39.5915 35.0061 38.7596 35.838 37.7371 35.838Z" fill="url(#paint1_linear_1_285)"/>
<path d="M21.4463 15.073C20.7178 14.3529 19.5436 14.3598 18.8236 15.0881C18.1038 15.8165 18.1104 16.9907 18.8387 17.7108L18.8703 17.7416C19.2318 18.0992 19.7029 18.2774 20.1739 18.2774C20.6519 18.2774 21.13 18.0934 21.4929 17.7264C22.2126 16.998 22.206 15.8238 21.4777 15.1037L21.4463 15.073Z" fill="url(#paint2_linear_1_285)"/>
<path d="M54.9078 31.2382C55.0663 31.2382 55.2282 31.2176 55.3892 31.1744L55.4316 31.1627C56.4208 30.8976 57.0079 29.8806 56.7426 28.8913C56.4771 27.9021 55.4611 27.315 54.4709 27.5803L54.4285 27.592C53.4392 27.8571 52.8522 28.8741 53.1174 29.8633C53.3396 30.6917 54.0888 31.2382 54.9078 31.2382Z" fill="url(#paint3_linear_1_285)"/>
<path d="M64.6249 48.1477L45.1326 59.402C44.2456 59.9141 43.9417 61.0482 44.4539 61.9352C44.7978 62.5299 45.4207 62.8628 46.0617 62.8628C46.3763 62.8628 46.6952 62.7823 46.9871 62.614L66.4796 51.3595C67.3666 50.8473 67.6705 49.7129 67.1583 48.8263C66.6459 47.9395 65.5119 47.6356 64.6249 48.1477Z" fill="url(#paint4_linear_1_285)"/>
<path d="M64.6251 61.531L57.366 65.7221C56.479 66.2342 56.1751 67.3682 56.6873 68.2552C57.031 68.85 57.6541 69.1829 58.2951 69.1829C58.6097 69.1829 58.9286 69.1024 59.2205 68.9341L66.4796 64.7431C67.3666 64.2309 67.6705 63.0969 67.1583 62.2099C66.6462 61.3228 65.5121 61.0189 64.6251 61.531Z" fill="url(#paint5_linear_1_285)"/>
<path d="M52.7523 68.3846L52.7142 68.4067C51.8269 68.9182 51.5218 70.0517 52.0329 70.9392C52.3763 71.535 53 71.8683 53.6417 71.8683C53.9557 71.8683 54.274 71.7885 54.5656 71.6205L54.6037 71.5985C55.491 71.087 55.7961 69.9535 55.2846 69.066C54.7735 68.1786 53.6398 67.8737 52.7523 68.3846Z" fill="url(#paint6_linear_1_285)"/>
<path d="M13.6463 54.0448L20.9051 58.2358C21.1973 58.4046 21.5162 58.4846 21.8305 58.4846C22.4716 58.4846 23.0949 58.152 23.4382 57.5569C23.9502 56.6699 23.6465 55.5359 22.7595 55.0237L15.5007 50.8327C14.6134 50.3206 13.4794 50.6248 12.9676 51.5114C12.4554 52.3986 12.7593 53.5324 13.6463 54.0448Z" fill="url(#paint7_linear_1_285)"/>
<path d="M8.99766 51.362L9.03573 51.3841C9.32659 51.5507 9.64386 51.6299 9.95645 51.6299C10.5993 51.6299 11.2245 51.2953 11.5672 50.6977C12.0762 49.8095 11.7692 48.6762 10.8806 48.1668L10.8426 48.1447C9.95332 47.6352 8.82051 47.9426 8.3113 48.8311C7.80209 49.7197 8.10928 50.8528 8.99766 51.362Z" fill="url(#paint8_linear_1_285)"/>
<defs>
<linearGradient id="paint0_linear_1_285" x1="54.9436" y1="-31.2913" x2="0.541087" y2="-16.9546" gradientUnits="userSpaceOnUse">
<stop stop-color="#FFDB5E"/>
<stop offset="1" stop-color="#FF9900"/>
</linearGradient>
<linearGradient id="paint1_linear_1_285" x1="40.3182" y1="24.4338" x2="32.3846" y2="26.9428" gradientUnits="userSpaceOnUse">
<stop stop-color="#FFDB5E"/>
<stop offset="1" stop-color="#FF9900"/>
</linearGradient>
<linearGradient id="paint2_linear_1_285" x1="21.0259" y1="13.1972" x2="18.359" y2="14.0406" gradientUnits="userSpaceOnUse">
<stop stop-color="#FFDB5E"/>
<stop offset="1" stop-color="#FF9900"/>
</linearGradient>
<linearGradient id="paint3_linear_1_285" x1="55.8006" y1="26.183" x2="53.1289" y2="27.035" gradientUnits="userSpaceOnUse">
<stop stop-color="#FFDB5E"/>
<stop offset="1" stop-color="#FF9900"/>
</linearGradient>
<linearGradient id="paint4_linear_1_285" x1="61.1885" y1="42.5369" x2="46.5173" y2="49.7306" gradientUnits="userSpaceOnUse">
<stop stop-color="#FFDB5E"/>
<stop offset="1" stop-color="#FF9900"/>
</linearGradient>
<linearGradient id="paint5_linear_1_285" x1="64.4673" y1="58.4512" x2="57.2544" y2="61.6179" gradientUnits="userSpaceOnUse">
<stop stop-color="#FFDB5E"/>
<stop offset="1" stop-color="#FF9900"/>
</linearGradient>
<linearGradient id="paint6_linear_1_285" x1="54.5282" y1="66.7999" x2="51.8582" y2="67.6479" gradientUnits="userSpaceOnUse">
<stop stop-color="#FFDB5E"/>
<stop offset="1" stop-color="#FF9900"/>
</linearGradient>
<linearGradient id="paint7_linear_1_285" x1="20.7473" y1="47.7529" x2="13.5345" y2="50.9195" gradientUnits="userSpaceOnUse">
<stop stop-color="#FFDB5E"/>
<stop offset="1" stop-color="#FF9900"/>
</linearGradient>
<linearGradient id="paint8_linear_1_285" x1="10.8086" y1="46.5617" x2="8.13853" y2="47.4097" gradientUnits="userSpaceOnUse">
<stop stop-color="#FFDB5E"/>
<stop offset="1" stop-color="#FF9900"/>
</linearGradient>
</defs>
</svg>
