<svg width="84" height="84" viewBox="0 0 84 84" fill="none" xmlns="http://www.w3.org/2000/svg">
<g clip-path="url(#clip0_1_313)">
<path d="M60.0796 64.7278C59.184 64.7278 58.457 65.4547 58.457 66.3504C58.457 67.2461 59.184 67.973 60.0796 67.973C60.9753 67.973 61.7022 67.2461 61.7022 66.3504C61.7022 65.4547 60.9753 64.7278 60.0796 64.7278Z" fill="url(#paint0_linear_1_313)"/>
<path d="M64.076 59.4802L56.3637 56.91L53.595 51.3725C56.0893 48.8338 57.8211 45.4746 58.4051 41.9709L58.7504 39.9013H61.7034C64.3875 39.9013 66.5712 37.7176 66.5712 35.0335V24.811C66.5712 11.3905 55.6527 0.471924 42.2321 0.471924C28.7771 0.471924 17.893 11.3591 17.893 24.811V35.0335C17.893 37.1487 19.2496 38.9524 21.1382 39.6222V41.5239C21.1382 44.208 23.3219 46.3917 26.006 46.3917H27.431C28.1344 47.9197 29.0448 49.335 30.1527 50.6063C30.3825 50.8704 30.6222 51.1265 30.8677 51.3756L28.1005 56.91L20.3881 59.4803C11.4207 62.4705 4.91211 71.9106 4.91211 81.9268C4.91211 82.823 5.63855 83.5494 6.53472 83.5494H77.9295C78.8255 83.5494 79.5521 82.823 79.5521 81.9268C79.5521 71.9106 73.0436 62.4705 64.076 59.4802ZM63.326 35.0335C63.326 35.9282 62.5981 36.6561 61.7034 36.6561H59.227C59.6394 33.4612 59.9143 30.0613 60.0248 26.7127C60.028 26.6183 60.0306 26.5265 60.0336 26.4336H63.326V35.0335ZM22.7608 36.6561C21.8661 36.6561 21.1382 35.9282 21.1382 35.0335V26.4336H24.4318C24.4371 26.6029 24.4428 26.7729 24.4491 26.9441C24.4493 26.95 24.4496 26.9556 24.4498 26.9615C24.4498 26.962 24.4498 26.9625 24.4498 26.9629C24.5633 30.2198 24.8346 33.5314 25.2377 36.6559H22.7608V36.6561ZM26.006 43.1465C25.1113 43.1465 24.3834 42.4186 24.3834 41.5239V39.9013H25.7136L26.0589 41.9716C26.1248 42.3651 26.2058 42.7571 26.2994 43.1465H26.006ZM24.3862 23.1884H21.1998C22.0217 12.3136 31.0973 3.71714 42.2321 3.71714C53.3174 3.71714 62.4329 12.3124 63.2642 23.1884H60.0782C59.9614 14.2273 52.664 6.96236 43.6845 6.96236H40.78C31.8007 6.96236 24.5028 14.2273 24.3862 23.1884ZM40.7799 10.2076H43.6843C50.9551 10.2076 56.8398 16.1546 56.8356 23.4172C56.8356 23.9279 56.8315 24.3724 56.8229 24.777C56.8229 24.7822 56.8227 24.7875 56.8227 24.7929L54.7932 24.5029C49.2796 23.7156 44.0736 21.1126 40.1342 17.1733C39.8298 16.869 39.4172 16.698 38.9869 16.698C34.6292 16.698 30.4578 18.6834 27.7003 22.0377C28.3799 15.4306 33.9654 10.2076 40.7799 10.2076ZM29.6634 43.1465C28.8511 40.4444 27.9217 32.4936 27.7162 27.3986L29.9001 24.4867C31.9058 21.8133 35.0263 20.1522 38.3456 19.9616C42.7132 24.118 48.3634 26.8628 54.3343 27.7153L56.7231 28.0567C56.5634 31.4456 56.2371 34.8462 55.7697 37.9738C55.7695 37.9748 55.7693 37.9759 55.7692 37.977C55.6205 38.9826 55.5034 39.6297 55.2042 41.4371C54.3449 46.5913 50.4989 51.2523 45.422 52.5216C43.3325 53.0433 41.1313 53.0431 39.043 52.5216C35.8729 51.7291 32.9662 49.5357 31.0903 46.3917H34.3981C35.0679 48.2803 36.8715 49.6369 38.9869 49.6369H42.2321C44.9216 49.6369 47.0999 47.4588 47.0999 44.7691C47.0999 42.085 44.9162 39.9013 42.2321 39.9013H38.9869C36.8244 39.9013 35.0475 41.298 34.3954 43.1465H29.6634ZM38.8504 55.8054C39.9634 56.0399 41.098 56.1598 42.2321 56.1598C43.1198 56.1598 44.0077 56.0855 44.8855 55.9414L42.0184 58.9736L38.8504 55.8054ZM39.7876 61.3325L34.641 66.7751C33.2242 64.0631 32.0067 61.2405 31.0082 58.351L32.9409 54.4856L39.7876 61.3325ZM51.2483 53.9359L53.4557 58.3508C52.4555 61.2452 51.2377 64.0687 49.8223 66.7775L44.3139 61.2691L51.2483 53.9359ZM37.3643 44.7691C37.3643 43.8733 38.0909 43.1465 38.9869 43.1465H42.2321C43.1268 43.1465 43.8547 43.8744 43.8547 44.7691C43.8547 45.6651 43.1279 46.3917 42.2321 46.3917H38.9869C38.0922 46.3917 37.3643 45.6638 37.3643 44.7691ZM8.22223 80.3042C8.86527 72.266 14.2148 64.9597 21.4144 62.5589L28.2446 60.2827C29.4959 63.7429 31.0462 67.1061 32.863 70.3007C32.8661 70.3062 32.869 70.3117 32.8721 70.3171L32.8722 70.3174C34.1997 72.6522 35.6938 74.9337 37.3136 77.0997L39.3098 80.3042H8.22223ZM42.2321 78.8578L40.0315 75.3249C40.0068 75.2853 39.9806 75.2469 39.9526 75.2096C38.6387 73.4568 37.4129 71.6238 36.2966 69.7475L42.0833 63.628L48.1807 69.7255C47.0569 71.6153 45.827 73.456 44.5118 75.2092C44.4323 75.3152 44.5451 75.1482 42.2321 78.8578ZM45.1544 80.3042L47.1504 77.0999C48.7774 74.9256 50.2822 72.6257 51.6229 70.2635C51.631 70.2493 51.6387 70.2347 51.6468 70.2204C51.6478 70.2186 51.6487 70.217 51.6497 70.2152C53.4435 67.0511 54.9775 63.7171 56.2196 60.2827L63.0497 62.5589C70.2493 64.9597 75.5989 72.266 76.2419 80.3042H45.1544Z" fill="url(#paint1_linear_1_313)"/>
<path d="M71.3656 73.7386C70.2812 71.5681 68.6929 69.6398 66.7722 68.1622C66.0618 67.6156 65.0431 67.7485 64.4968 68.4588C63.9503 69.1692 64.0832 70.1879 64.7934 70.7344C66.3274 71.9145 67.596 73.4548 68.4623 75.1889C68.8636 75.9919 69.8388 76.3152 70.639 75.9154C71.4406 75.5149 71.7659 74.5404 71.3656 73.7386Z" fill="url(#paint2_linear_1_313)"/>
</g>
<defs>
<linearGradient id="paint0_linear_1_313" x1="60.8325" y1="63.5649" x2="58.5185" y2="64.2967" gradientUnits="userSpaceOnUse">
<stop stop-color="#FFDB5E"/>
<stop offset="1" stop-color="#FF9900"/>
</linearGradient>
<linearGradient id="paint1_linear_1_313" x1="59.5472" y1="-29.2975" x2="5.37614" y2="-13.9066" gradientUnits="userSpaceOnUse">
<stop stop-color="#FFDB5E"/>
<stop offset="1" stop-color="#FF9900"/>
</linearGradient>
<linearGradient id="paint2_linear_1_313" x1="69.5598" y1="64.8652" x2="64.2011" y2="66.3783" gradientUnits="userSpaceOnUse">
<stop stop-color="#FFDB5E"/>
<stop offset="1" stop-color="#FF9900"/>
</linearGradient>
<clipPath id="clip0_1_313">
<rect width="83.0775" height="83.0775" fill="white" transform="translate(0.694336 0.472656)"/>
</clipPath>
</defs>
</svg>
