<svg width="17" height="18" viewBox="0 0 17 18" fill="none" xmlns="http://www.w3.org/2000/svg">
<path fill-rule="evenodd" clip-rule="evenodd" d="M15.2391 0.117458C15.4481 0.0134552 15.6769 -0.0224146 15.9016 0.0135814C16.1263 0.0495775 16.3388 0.156124 16.5169 0.32213C16.6949 0.488137 16.8321 0.707535 16.9141 0.957488C16.9961 1.20744 17.02 1.47881 16.9832 1.74336L15.0648 15.4995C14.8788 16.8264 13.6473 17.5874 12.6179 16.9264C11.7568 16.3734 10.478 15.5215 9.32764 14.6326C8.75248 14.1876 6.99063 12.7627 7.20716 11.7487C7.39324 10.8818 10.3536 7.62399 12.0453 5.68711C12.7092 4.92616 12.4064 4.48718 11.6224 5.18714C9.67442 6.92503 6.54911 9.56787 5.51551 10.3118C4.60372 10.9678 4.12836 11.0798 3.55997 10.9678C2.52299 10.7638 1.56129 10.4478 0.77637 10.0628C-0.284291 9.54287 -0.232696 7.81898 0.775524 7.31701L15.2391 0.117458Z" fill="black"/>
</svg>
