<svg width="90" height="89" viewBox="0 0 90 89" fill="none" xmlns="http://www.w3.org/2000/svg">
<path d="M55.6632 37.5918C53.3308 35.2854 51.1633 33.8539 48.8422 33.09C47.1697 32.5374 45.8385 31.221 45.2836 29.5709C44.5111 27.2718 43.0637 25.1286 40.7312 22.8258L20.8456 3.16107C16.7319 -0.906895 9.53212 -0.925321 5.39982 3.16107L3.19489 5.3415C1.13621 7.38095 0 10.0917 0 12.9878C0 15.869 1.13621 18.5798 3.19489 20.6156L23.0805 40.2803C25.4129 42.5868 27.5804 44.0182 29.9015 44.7821C31.574 45.3347 32.9052 46.6511 33.4601 48.3012C34.2326 50.5965 35.6838 52.7435 38.0837 55.1169C38.9575 55.9846 40.1049 56.4148 41.2524 56.4148C42.3962 56.4148 43.5324 55.9846 44.3986 55.1244L55.7419 43.9071C57.4819 42.1899 57.4819 39.3903 55.6632 37.5918ZM53.0982 41.2888L41.7549 52.5061C41.4661 52.7842 41.0237 52.7767 40.675 52.4319C38.7662 50.5443 37.6038 48.8609 37.0225 47.1291C36.0925 44.3738 33.8763 42.1823 31.0903 41.2628C29.3429 40.6879 27.6403 39.5421 25.7355 37.6584L5.84981 17.9939C4.49616 16.6589 3.74982 14.879 3.74982 12.973C3.74982 11.0818 4.49598 9.30186 5.84594 7.96326L8.05104 5.78648C9.40469 4.44788 11.2009 3.70983 13.1283 3.70983C15.0444 3.70983 16.8444 4.4477 18.1943 5.78266L38.08 25.4474C39.9887 27.3311 41.1436 29.0109 41.7286 30.7427C42.6586 33.4979 44.8748 35.6895 47.6608 36.609C49.412 37.1838 51.1107 38.3297 53.0981 40.2949C53.3758 40.5695 53.3758 41.0145 53.0982 41.2888Z" fill="url(#paint0_linear_98_214)"/>
<path d="M89.8021 82.6057L83.3372 69.8235C82.3773 67.9287 80.4498 66.7495 78.305 66.7495H75.7738L53.8219 45.0453C53.0907 44.3222 51.9019 44.3222 51.1707 45.0453C50.4395 45.7684 50.4395 46.944 51.1707 47.6671L73.6699 69.9163C74.0224 70.2612 74.4987 70.4578 74.9974 70.4578H78.3048C79.0211 70.4578 79.6623 70.8508 79.9773 71.4849L85.8383 83.0731L84.001 84.8901L72.2825 79.0941C71.645 78.779 71.2476 78.1449 71.2476 77.4366V74.1659C71.2476 73.6728 71.0488 73.2017 70.6963 72.8532L48.1971 50.604C47.4659 49.8809 46.2771 49.8809 45.5459 50.604C44.8146 51.3271 44.8146 52.5026 45.5459 53.2257L67.4978 74.9335V77.4366C67.4978 79.5539 68.6902 81.4637 70.6063 82.4093L83.5322 88.8023C83.8022 88.9358 84.0871 88.9989 84.3722 88.9989C84.8559 88.9989 85.336 88.8134 85.6997 88.4538L89.4495 84.7456C90.0232 84.1817 90.1621 83.3177 89.8021 82.6057Z" fill="url(#paint1_linear_98_214)"/>
<path d="M89.9633 17.4229C89.9258 16.7851 89.4832 16.1733 88.9133 15.8654C88.3284 15.5503 87.6233 15.5614 87.0496 15.9024L76.7899 21.9876C73.6738 20.3931 71.6376 17.4006 71.2964 13.9965L82.7561 7.19934C83.2812 6.88785 83.6186 6.34274 83.6636 5.73836C83.7049 5.13398 83.4462 4.54802 82.9699 4.16614C79.6212 1.4924 75.65 0.0536736 71.4801 0.0017007C66.9015 -0.0353235 62.0079 2.07088 58.4269 5.84578C54.242 10.2548 52.3071 14.6268 52.5059 19.2028C52.6147 21.7133 51.4785 24.3387 49.386 26.4079L43.9899 31.7441C43.2587 32.4708 43.2587 33.6428 43.9899 34.3659C45.0173 35.3818 46.2848 36.1569 47.6573 36.6094C49.4085 37.1842 51.1072 38.33 53.0945 40.2953C53.3308 40.5289 53.3308 41.0554 53.0945 41.289L50.2334 44.1183C49.5022 44.8414 49.5022 46.017 50.2334 46.7401L52.1084 48.5943C52.476 48.9539 52.9559 49.1357 53.4359 49.1357C53.9159 49.1357 54.3958 48.9541 54.7634 48.5906L66.9655 36.524C68.4842 36.9059 69.8679 37.0839 71.2479 37.0839C76.389 37.0839 81.3613 34.9628 84.89 31.2583C88.4707 27.5054 90.2707 22.5922 89.9633 17.4229ZM82.1636 28.718C79.2986 31.7217 75.4214 33.3756 71.2477 33.3756C69.9203 33.3756 68.5591 33.1531 66.9541 32.6711C66.2867 32.4708 65.5741 32.6525 65.0866 33.1347L57.0319 41.0999C57.1144 39.8576 56.6644 38.5783 55.667 37.592C53.3347 35.2855 51.1672 33.8539 48.8422 33.09C48.6209 33.0196 48.4071 32.9344 48.1973 32.8343L52.0446 29.026C54.8795 26.2263 56.417 22.5849 56.2596 19.0398C56.1021 15.4651 57.6621 12.0757 61.1681 8.37872C64.0255 5.36395 67.8954 3.61373 71.4314 3.71003C73.8425 3.73975 76.1788 4.35891 78.3086 5.51587L68.409 11.3897C67.8428 11.7271 67.4977 12.3278 67.4977 12.9805C67.4977 18.261 70.464 23.0074 75.2412 25.377L76.0323 25.7663C76.6098 26.0481 77.2886 26.0222 77.836 25.6959L86.0744 20.8086C85.6246 23.7603 84.2822 26.4931 82.1636 28.718Z" fill="url(#paint2_linear_98_214)"/>
<path d="M49.1421 51.5346L47.2671 49.6804C46.5358 48.9573 45.3471 48.9573 44.6158 49.6804L41.7547 52.5098C41.4659 52.7879 41.0235 52.7804 40.6748 52.4355C38.7623 50.5443 37.6036 48.8609 37.0223 47.1327C36.5648 45.7719 35.7812 44.5184 34.7536 43.5061C34.0187 42.783 32.8336 42.783 32.1024 43.5061L26.4475 49.0981C24.595 50.9262 21.8427 51.7533 18.7491 51.9163C8.41103 51.9167 0 60.2341 0 70.4576C0 71.1065 0.0824387 71.7295 0.165053 72.3524L0.224993 72.7899C0.307431 73.4093 0.697477 73.9469 1.26752 74.2214C1.84125 74.4958 2.50498 74.4661 3.05252 74.1435L15.0784 67.009C18.1945 68.6034 20.2307 71.5923 20.5719 75.0001L8.02854 82.4425C7.48856 82.7651 7.14351 83.3361 7.12101 83.9591C7.09482 84.5857 7.391 85.1791 7.9048 85.5424C11.1072 87.7971 14.8421 88.9911 18.712 88.9985C18.7232 88.9985 18.7308 88.9985 18.7382 88.9985C23.3918 88.9985 28.0979 86.8367 31.6491 83.0728C35.7777 78.6933 37.6901 74.3547 37.4913 69.8086C37.3825 67.2944 38.5226 64.6578 40.6224 62.5812L49.1421 54.1562C49.8733 53.4333 49.8733 52.2577 49.1421 51.5346ZM37.9638 59.956C35.1252 62.763 33.584 66.4119 33.7376 69.9645C33.8914 73.5169 32.3539 76.8765 28.9003 80.544C26.0578 83.5624 22.3567 85.2906 18.7382 85.2906C18.7306 85.2906 18.7232 85.2906 18.7194 85.2906C16.6306 85.2869 14.5871 84.8456 12.6896 84.0037L23.463 77.6107C24.0292 77.2734 24.3743 76.6726 24.3743 76.0199C24.3743 70.7394 21.4043 65.9892 16.6308 63.6234L15.8396 63.2341C15.2659 62.9523 14.5872 62.9782 14.036 63.3045L3.7913 69.386C4.34622 61.7063 10.8448 55.6248 18.7946 55.6248C18.8171 55.6248 18.8396 55.6248 18.8621 55.6248C22.9157 55.6248 26.5493 54.2379 29.0993 51.7201L33.2017 47.6632C33.3029 47.871 33.385 48.0825 33.4601 48.3012C34.2326 50.5965 35.6838 52.7435 38.0837 55.1169C39.0323 56.0589 40.2926 56.4998 41.5565 56.4035L37.9638 59.956Z" fill="url(#paint3_linear_98_214)"/>
<defs>
<linearGradient id="paint0_linear_98_214" x1="65.8784" y1="-31.8896" x2="1.83638" y2="-11.4092" gradientUnits="userSpaceOnUse">
<stop stop-color="#FFDB5E"/>
<stop offset="1" stop-color="#FF9900"/>
</linearGradient>
<linearGradient id="paint1_linear_98_214" x1="65.8784" y1="-31.8896" x2="1.83638" y2="-11.4092" gradientUnits="userSpaceOnUse">
<stop stop-color="#FFDB5E"/>
<stop offset="1" stop-color="#FF9900"/>
</linearGradient>
<linearGradient id="paint2_linear_98_214" x1="65.8784" y1="-31.8896" x2="1.83638" y2="-11.4092" gradientUnits="userSpaceOnUse">
<stop stop-color="#FFDB5E"/>
<stop offset="1" stop-color="#FF9900"/>
</linearGradient>
<linearGradient id="paint3_linear_98_214" x1="65.8784" y1="-31.8896" x2="1.83638" y2="-11.4092" gradientUnits="userSpaceOnUse">
<stop stop-color="#FFDB5E"/>
<stop offset="1" stop-color="#FF9900"/>
</linearGradient>
</defs>
</svg>
